<?xml version='1.0' encoding='iso-8859-1'?>
<svg version="1.1" xmlns="http://www.w3.org/2000/svg" viewBox="0 0 463 463" xmlns:xlink="http://www.w3.org/1999/xlink" enable-background="new 0 0 463 463">
  <g>
    <g>
      <path d="M15,231.5c0-57.829,22.52-112.197,63.411-153.089C119.303,37.52,173.671,15,231.5,15c58.54,0,114.016,23.508,154.647,65    H359.5c-4.142,0-7.5,3.357-7.5,7.5s3.358,7.5,7.5,7.5h48c4.142,0,7.5-3.357,7.5-7.5v-48c0-4.143-3.358-7.5-7.5-7.5    s-7.5,3.357-7.5,7.5v33.259C356.301,26.363,295.617,0,231.5,0C169.664,0,111.529,24.08,67.805,67.805S0,169.664,0,231.5    c0,40.69,10.708,80.711,30.965,115.737c1.39,2.403,3.909,3.746,6.499,3.746c1.274,0,2.566-0.325,3.748-1.009    c3.585-2.073,4.811-6.661,2.737-10.247C25.011,306.981,15,269.557,15,231.5z"/>
      <path d="M432.019,115.735c-2.074-3.586-6.661-4.81-10.248-2.736c-3.585,2.074-4.81,6.663-2.736,10.248    C437.984,156,448,193.433,448,231.5c0,57.829-22.52,112.197-63.411,153.089C343.697,425.48,289.329,448,231.5,448    c-58.496,0-114.007-23.519-154.637-65H103.5c4.142,0,7.5-3.357,7.5-7.5s-3.358-7.5-7.5-7.5h-48c-4.142,0-7.5,3.357-7.5,7.5v48    c0,4.143,3.358,7.5,7.5,7.5s7.5-3.357,7.5-7.5v-33.26C106.699,436.626,167.429,463,231.5,463    c61.836,0,119.971-24.08,163.695-67.805S463,293.336,463,231.5C463,190.799,452.287,150.768,432.019,115.735z"/>
      <path d="M231.5,64C139.144,64,64.007,139.134,64,231.487c0,0.004,0,0.009,0,0.013s0,0.009,0,0.013    C64.007,323.866,139.144,399,231.5,399c92.36,0,167.5-75.141,167.5-167.5S323.86,64,231.5,64z M239,383.814V367.5    c0-4.143-3.358-7.5-7.5-7.5s-7.5,3.357-7.5,7.5v16.314C145.867,380.011,82.989,317.133,79.186,239H95.5c4.142,0,7.5-3.357,7.5-7.5    s-3.358-7.5-7.5-7.5H79.186C82.989,145.867,145.867,82.989,224,79.186V95.5c0,4.143,3.358,7.5,7.5,7.5s7.5-3.357,7.5-7.5V79.186    C317.133,82.989,380.011,145.867,383.814,224H367.5c-4.142,0-7.5,3.357-7.5,7.5s3.358,7.5,7.5,7.5h16.315    C380.011,317.133,317.133,380.011,239,383.814z"/>
      <path d="m327.5,224h-65.409c-0.773-3.152-2.015-6.122-3.659-8.824l70.372-70.372c2.929-2.93 2.929-7.678 0-10.607-2.929-2.928-7.678-2.928-10.606,0l-70.372,70.372c-4.765-2.899-10.354-4.569-16.326-4.569-14.785,0-27.216,10.241-30.591,24h-17.409c-4.142,0-7.5,3.357-7.5,7.5s3.358,7.5 7.5,7.5h17.409c0.773,3.152 2.015,6.122 3.659,8.824l-18.372,18.372c-2.929,2.93-2.929,7.678 0,10.607 1.464,1.464 3.384,2.196 5.303,2.196s3.839-0.732 5.303-2.196l18.372-18.372c4.765,2.899 10.354,4.569 16.326,4.569 14.785,0 27.216-10.241 30.591-24h65.409c4.142,0 7.5-3.357 7.5-7.5s-3.358-7.5-7.5-7.5zm-96,24c-9.098,0-16.5-7.402-16.5-16.5s7.402-16.5 16.5-16.5 16.5,7.402 16.5,16.5-7.402,16.5-16.5,16.5z"/>
    </g>
  </g>
</svg>
