<?xml version="1.0" encoding="iso-8859-1"?>
<!-- Generator: Adobe Illustrator 17.1.0, SVG Export Plug-In . SVG Version: 6.00 Build 0)  -->
<!DOCTYPE svg PUBLIC "-//W3C//DTD SVG 1.1//EN" "http://www.w3.org/Graphics/SVG/1.1/DTD/svg11.dtd">
<svg version="1.1" id="Capa_1" xmlns="http://www.w3.org/2000/svg" xmlns:xlink="http://www.w3.org/1999/xlink" x="0px" y="0px"
	 viewBox="0 0 470 470" style="enable-background:new 0 0 470 470;" xml:space="preserve">
<g>
	<path d="M467.804,55.09L414.91,2.197C413.503,0.79,411.596,0,409.606,0s-3.896,0.79-5.304,2.197l-18.927,18.927
		c-13.84,13.84-16.006,33.975-15.193,49.16L230.999,209.467c-1.793,0.089-3.561,0.81-4.931,2.179l-14.807,14.807l-26.483-26.483
		c-9.411-9.411-22.2-14.594-36.013-14.594c-14.981,0-29.824,6.25-40.723,17.148L22.807,287.76
		c-0.011,0.011-20.611,20.61-20.611,20.61C0.79,309.777,0,311.685,0,313.674s0.79,3.897,2.196,5.303l148.826,148.826
		c1.465,1.464,3.385,2.197,5.304,2.197s3.839-0.732,5.304-2.197l105.847-105.846c21.859-21.86,23.005-56.284,2.553-76.736
		l-26.485-26.485l14.809-14.808c1.317-1.317,2.084-3.074,2.177-4.925L399.716,99.818c1.77,0.095,3.605,0.15,5.491,0.15
		c14.3,0,31.442-3.117,43.67-15.344l18.927-18.927C470.732,62.768,470.732,58.019,467.804,55.09z M156.326,451.894l-138.22-138.22
		l9.998-9.998l138.22,138.22L156.326,451.894z M259.422,295.828c14.604,14.604,13.459,39.511-2.553,55.523l-79.938,79.938
		l-138.22-138.22l79.939-79.938c8.105-8.106,19.082-12.755,30.115-12.755c9.806,0,18.828,3.623,25.405,10.2l26.484,26.484
		l-7.06,7.059c-2.93,2.929-2.93,7.677-0.001,10.606c1.465,1.465,3.384,2.197,5.304,2.197c1.919,0,3.839-0.732,5.303-2.197
		l27.171-27.17l11.07,11.07l-27.171,27.17c-2.929,2.929-2.929,7.678,0.001,10.606c1.464,1.465,3.384,2.197,5.303,2.197
		s3.839-0.732,5.304-2.197l7.059-7.059L259.422,295.828z M251.675,226.645l-8.32-8.32L372.767,88.914
		c0.32,1.39,0.556,2.26,0.62,2.489c0.705,2.53,2.682,4.506,5.211,5.211c0.229,0.064,1.099,0.3,2.488,0.62L251.675,226.645z
		 M386.871,83.116c-1.786-9.021-4.642-30.444,4.46-45.43l40.978,40.978C417.353,87.712,395.89,84.881,386.871,83.116z
		 M443.573,68.714l-42.287-42.287l8.32-8.321l42.287,42.287L443.573,68.714z"/>
	<path d="M141.547,239.158c-2.93-2.929-7.678-2.929-10.607,0l-57.769,57.769c-2.929,2.929-2.929,7.678,0,10.606
		c1.465,1.464,3.385,2.197,5.304,2.197s3.839-0.732,5.304-2.197l57.769-57.769C144.476,246.836,144.476,242.087,141.547,239.158z"/>
	<path d="M171.313,268.923c-2.93-2.929-7.678-2.929-10.607,0l-57.769,57.769c-2.929,2.929-2.929,7.678,0,10.606
		c1.465,1.464,3.385,2.197,5.304,2.197s3.839-0.732,5.304-2.197l57.769-57.769C174.241,276.601,174.241,271.852,171.313,268.923z"/>
	<path d="M201.077,298.689c-2.929-2.929-7.677-2.929-10.607,0l-57.769,57.768c-2.929,2.929-2.929,7.678,0,10.606
		c1.465,1.465,3.384,2.197,5.304,2.197c1.919,0,3.839-0.732,5.304-2.197l57.769-57.768
		C204.006,306.366,204.006,301.617,201.077,298.689z"/>
	<path d="M220.235,328.454l-57.769,57.769c-2.929,2.929-2.929,7.678,0,10.606c1.465,1.464,3.385,2.197,5.304,2.197
		s3.839-0.732,5.304-2.197l57.769-57.769c2.929-2.929,2.929-7.678,0-10.606C227.913,325.525,223.165,325.525,220.235,328.454z"/>
</g>
<g>
</g>
<g>
</g>
<g>
</g>
<g>
</g>
<g>
</g>
<g>
</g>
<g>
</g>
<g>
</g>
<g>
</g>
<g>
</g>
<g>
</g>
<g>
</g>
<g>
</g>
<g>
</g>
<g>
</g>
</svg>
