<?xml version="1.0" encoding="iso-8859-1"?>
<!-- Generator: Adobe Illustrator 17.1.0, SVG Export Plug-In . SVG Version: 6.00 Build 0)  -->
<!DOCTYPE svg PUBLIC "-//W3C//DTD SVG 1.1//EN" "http://www.w3.org/Graphics/SVG/1.1/DTD/svg11.dtd">
<svg version="1.1" id="Capa_1" xmlns="http://www.w3.org/2000/svg" xmlns:xlink="http://www.w3.org/1999/xlink" x="0px" y="0px"
	 viewBox="0 0 470 470" style="enable-background:new 0 0 470 470;" xml:space="preserve">
<path d="M466.359,228.568L424.583,203.5c-2.793-1.676-6.352-1.357-8.802,0.791L389.297,227.5h-24.366l-51.276-29.251l20.601-11.894
	l48.782,9.063c0.463,0.086,0.924,0.127,1.378,0.127c3.543,0,6.695-2.522,7.366-6.131c0.756-4.073-1.932-7.987-6.004-8.744
	l-31.53-5.858l37.076-21.406c3.587-2.071,4.816-6.658,2.745-10.245c-2.071-3.587-6.658-4.817-10.245-2.745l-37.076,21.406
	l10.691-30.234c1.381-3.905-0.665-8.19-4.57-9.571c-3.905-1.382-8.191,0.666-9.571,4.57l-16.542,46.778l-20.601,11.894l0.306-59.032
	l12.183-21.102l33.341-11.331c3.085-1.048,5.141-3.969,5.086-7.228l-0.822-48.713c-0.044-2.634-1.468-5.052-3.749-6.369
	c-2.282-1.317-5.086-1.34-7.39-0.063l-42.597,23.645c-2.849,1.582-4.351,4.822-3.716,8.018l6.857,34.54l-12.183,21.102l-50.97,29.78
	v-23.787l32.24-37.715c2.691-3.149,2.321-7.883-0.828-10.575c-3.148-2.691-7.883-2.32-10.575,0.828L242.5,101.634V58.822
	c0-4.142-3.358-7.5-7.5-7.5s-7.5,3.358-7.5,7.5v42.812l-20.837-24.376c-2.692-3.148-7.426-3.518-10.575-0.828
	c-3.148,2.692-3.519,7.426-0.828,10.575l32.24,37.715v23.787l-50.971-29.78l-12.183-21.102l6.858-34.54
	c0.635-3.196-0.867-6.437-3.716-8.018L124.89,31.422c-2.304-1.278-5.108-1.255-7.39,0.063c-2.281,1.317-3.705,3.735-3.749,6.369
	l-0.821,48.713c-0.055,3.258,2,6.179,5.086,7.228l33.341,11.331l12.183,21.102l0.306,59.032l-20.601-11.894l-16.542-46.778
	c-1.38-3.905-5.665-5.951-9.571-4.57c-3.905,1.381-5.951,5.666-4.57,9.571l10.691,30.234l-37.076-21.406
	c-3.588-2.072-8.174-0.842-10.245,2.745c-2.071,3.587-0.842,8.174,2.745,10.245l37.076,21.406l-31.53,5.858
	c-4.072,0.757-6.76,4.671-6.004,8.744c0.671,3.609,3.822,6.131,7.366,6.131c0.454,0,0.916-0.042,1.378-0.127l48.782-9.063
	l20.601,11.894L105.069,227.5H80.703l-26.484-23.209c-2.45-2.147-6.008-2.466-8.802-0.791L3.641,228.569
	C1.382,229.925,0,232.366,0,235s1.382,5.076,3.641,6.431l41.776,25.068c1.195,0.717,2.529,1.069,3.857,1.069
	c1.777,0,3.542-0.63,4.944-1.859L80.703,242.5h24.366l51.276,29.251l-20.601,11.894l-48.782-9.063
	c-4.075-0.756-7.987,1.932-8.744,6.004c-0.756,4.073,1.932,7.987,6.004,8.744l31.53,5.858l-37.076,21.406
	c-3.587,2.071-4.816,6.658-2.745,10.245c1.389,2.406,3.91,3.751,6.502,3.751c1.272,0,2.562-0.324,3.743-1.006l37.076-21.406
	l-10.691,30.234c-1.381,3.905,0.665,8.19,4.57,9.571c0.827,0.292,1.671,0.431,2.5,0.431c3.089,0,5.982-1.923,7.071-5.001
	l16.542-46.778l20.601-11.894l-0.306,59.032l-12.183,21.102l-33.341,11.331c-3.085,1.048-5.141,3.969-5.086,7.228l0.822,48.713
	c0.044,2.634,1.468,5.052,3.749,6.369c1.16,0.669,2.455,1.005,3.75,1.005c1.253,0,2.507-0.314,3.64-0.942l42.597-23.645
	c2.849-1.582,4.351-4.822,3.716-8.018l-6.857-34.54l12.183-21.102l50.97-29.78v23.787l-32.24,37.715
	c-2.691,3.149-2.321,7.883,0.828,10.575c3.149,2.691,7.883,2.32,10.575-0.828l20.837-24.376v42.812c0,4.142,3.358,7.5,7.5,7.5
	s7.5-3.358,7.5-7.5v-42.812l20.837,24.376c1.484,1.735,3.587,2.626,5.705,2.626c1.724,0,3.457-0.591,4.87-1.799
	c3.148-2.692,3.519-7.426,0.828-10.575L242.5,345.28v-23.787l50.971,29.78l12.183,21.102l-6.858,34.54
	c-0.635,3.196,0.867,6.437,3.716,8.018l42.598,23.645c1.133,0.628,2.387,0.942,3.64,0.942c1.295,0,2.59-0.335,3.75-1.005
	c2.281-1.317,3.705-3.735,3.749-6.369l0.821-48.713c0.055-3.258-2-6.179-5.086-7.228l-33.341-11.331l-12.183-21.102l-0.305-59.032
	l20.601,11.894l16.542,46.778c1.088,3.079,3.981,5.002,7.071,5.001c0.83,0,1.674-0.139,2.5-0.431
	c3.905-1.381,5.951-5.666,4.57-9.571l-10.691-30.234l37.076,21.406c1.181,0.682,2.471,1.006,3.743,1.006
	c2.592,0,5.113-1.346,6.502-3.751c2.071-3.587,0.842-8.174-2.745-10.245l-37.076-21.406l31.53-5.858
	c4.072-0.757,6.76-4.671,6.004-8.744c-0.757-4.072-4.671-6.761-8.744-6.004l-48.782,9.063l-20.601-11.894l51.276-29.251h24.366
	l26.484,23.209c1.402,1.229,3.167,1.859,4.944,1.859c1.328,0,2.663-0.352,3.857-1.069l41.776-25.069
	c2.259-1.355,3.641-3.797,3.641-6.431S468.618,229.924,466.359,228.568z M341.461,50.602l0.519,30.749l-22.731,7.725l-4.675-23.549
	L341.461,50.602z M291.403,137.307l-0.293,56.638L242.5,222.01v-56.13L291.403,137.307z M128.538,50.603l26.889,14.925
	l-4.675,23.548l-22.731-7.725L128.538,50.603z M178.597,137.307l48.903,28.573v56.13l-48.61-28.065L178.597,137.307z
	 M48.446,250.824L22.076,235l26.37-15.824L66.502,235L48.446,250.824z M122.193,235l49.197-28.065L220,235l-48.61,28.065
	L122.193,235z M128.539,419.397l-0.519-30.749l22.731-7.725l4.675,23.549L128.539,419.397z M178.597,332.693l0.293-56.638
	l48.61-28.065v56.13L178.597,332.693z M341.462,419.397l-26.889-14.925l4.675-23.548l22.731,7.725L341.462,419.397z
	 M291.403,332.693L242.5,304.121v-56.13l48.61,28.065L291.403,332.693z M298.61,263.065L250,235l48.61-28.065L347.807,235
	L298.61,263.065z M421.554,250.823L403.498,235l18.056-15.824l26.37,15.823L421.554,250.823z"/>
<g>
</g>
<g>
</g>
<g>
</g>
<g>
</g>
<g>
</g>
<g>
</g>
<g>
</g>
<g>
</g>
<g>
</g>
<g>
</g>
<g>
</g>
<g>
</g>
<g>
</g>
<g>
</g>
<g>
</g>
</svg>
