<?xml version="1.0" encoding="iso-8859-1"?>
<!-- Generator: Adobe Illustrator 17.1.0, SVG Export Plug-In . SVG Version: 6.00 Build 0)  -->
<!DOCTYPE svg PUBLIC "-//W3C//DTD SVG 1.1//EN" "http://www.w3.org/Graphics/SVG/1.1/DTD/svg11.dtd">
<svg version="1.1" id="Capa_1" xmlns="http://www.w3.org/2000/svg" xmlns:xlink="http://www.w3.org/1999/xlink" x="0px" y="0px"
	 viewBox="0 0 470 470" style="enable-background:new 0 0 470 470;" xml:space="preserve">
<g>
	<path d="M303.118,196.327h-58.759v-32.842c0-4.142-3.357-7.5-7.5-7.5s-7.5,3.358-7.5,7.5v40.342c0,4.142,3.357,7.5,7.5,7.5h66.259
		c4.143,0,7.5-3.358,7.5-7.5S307.261,196.327,303.118,196.327z"/>
	<path d="M255.416,224.164H236.86c-4.143,0-7.5,3.358-7.5,7.5s3.357,7.5,7.5,7.5h18.556c4.143,0,7.5-3.358,7.5-7.5
		S259.559,224.164,255.416,224.164z"/>
	<path d="M107.958,263.578c-28.71,0-52.067,23.357-52.067,52.067s23.357,52.067,52.067,52.067s52.067-23.357,52.067-52.067
		S136.668,263.578,107.958,263.578z M107.958,352.713c-20.439,0-37.067-16.628-37.067-37.067s16.628-37.067,37.067-37.067
		s37.067,16.628,37.067,37.067S128.397,352.713,107.958,352.713z"/>
	<path d="M437.235,304.672c-0.1-0.478-0.245-0.94-0.432-1.38c-3.461-11.475-5.255-23.518-5.255-35.835
		c0-33.015,12.876-64.073,36.256-87.453c2.929-2.929,2.929-7.678,0-10.606c-2.93-2.929-7.678-2.929-10.607,0
		c-24.434,24.435-38.63,56.354-40.444,90.559h-17.828v-41.483c0-3.438-2.338-6.437-5.673-7.274l-54.512-13.692l-25.362-66.69
		c-1.106-2.91-3.896-4.834-7.01-4.834h-62.008v-12.503c0-4.142-3.357-7.5-7.5-7.5s-7.5,3.358-7.5,7.5v13.301
		c-16.134,3.457-28.269,17.821-28.269,34.971v136.97h-15.052c-7.786-35.955-39.83-62.979-78.081-62.979
		s-70.294,27.024-78.081,62.979H15v-96.671h164.921c4.143,0,7.5-3.358,7.5-7.5v-81.07c0-4.142-3.357-7.5-7.5-7.5s-7.5,3.358-7.5,7.5
		v8.754c-14.613-12.715-33.469-19.948-53.279-19.948c-29.525,0-56.329,15.766-70.727,41.367
		c-19.52,6.342-33.563,23.286-36.392,43.398H7.5c-4.143,0-7.5,3.358-7.5,7.5v111.671c0,4.142,3.357,7.5,7.5,7.5h20.605
		c-0.015,0.641-0.049,1.278-0.049,1.923c0,4.142,3.357,7.5,7.5,7.5s7.5-3.358,7.5-7.5c0-35.787,29.114-64.902,64.901-64.902
		s64.901,29.115,64.901,64.902c0,4.142,3.357,7.5,7.5,7.5s7.5-3.358,7.5-7.5c0-0.645-0.034-1.282-0.049-1.923h20.78h58.578
		c-0.023,0.639-0.049,1.278-0.049,1.923c0,28.71,23.357,52.067,52.067,52.067s52.067-23.357,52.067-52.067
		c0-0.645-0.025-1.284-0.049-1.923h20.218h33.01c6.804,19.257,17.883,36.914,32.763,51.793c1.465,1.464,3.385,2.197,5.304,2.197
		s3.839-0.732,5.304-2.197c2.929-2.929,2.929-7.678,0-10.606C453.497,340.603,443.132,323.419,437.235,304.672z M55.398,157.238
		c2.082-0.535,3.835-1.937,4.813-3.851c11.384-22.268,33.965-36.1,58.93-36.1c21.065,0,40.813,10.028,53.279,26.934v42.831H27.228
		C30.059,172.726,40.85,160.972,55.398,157.238z M319.188,352.713c-20.439,0-37.067-16.628-37.067-37.067
		s16.628-37.067,37.067-37.067s37.067,16.628,37.067,37.067S339.627,352.713,319.188,352.713z M319.188,263.578
		c-22.786,0-42.187,14.719-49.229,35.145h-53.868v-136.97c0-11.45,9.314-20.765,20.764-20.768c0.014,0,64.34,0,64.34,0
		l24.914,65.511c0.871,2.291,2.806,4.011,5.183,4.608l52.632,13.22v74.399h-15.508C361.375,278.298,341.974,263.578,319.188,263.578
		z M398.924,298.723v-23.766h17.828c0.428,8.072,1.547,16.016,3.327,23.766H398.924z"/>
</g>
<g>
</g>
<g>
</g>
<g>
</g>
<g>
</g>
<g>
</g>
<g>
</g>
<g>
</g>
<g>
</g>
<g>
</g>
<g>
</g>
<g>
</g>
<g>
</g>
<g>
</g>
<g>
</g>
<g>
</g>
</svg>
