<?xml version="1.0" encoding="iso-8859-1"?>
<!-- Generator: Adobe Illustrator 19.0.0, SVG Export Plug-In . SVG Version: 6.00 Build 0)  -->
<svg version="1.1" id="Layer_1" xmlns="http://www.w3.org/2000/svg" xmlns:xlink="http://www.w3.org/1999/xlink" x="0px" y="0px"
	 viewBox="0 0 512 512" style="enable-background:new 0 0 512 512;" xml:space="preserve">
<path style="fill:#625D6B;" d="M116.227,384.762v48.585c0,0.168-0.014,0.33-0.032,0.492l-0.011,0.096l-0.004,0.097
	c-0.888,19.561-16.931,34.884-36.524,34.884c-20.165,0-36.571-16.406-36.571-36.571v-47.583l-5.11,5.007
	c-11.566,11.334-17.935,26.455-17.935,42.576c0,32.873,26.743,59.616,59.616,59.616s59.616-26.743,59.616-59.616
	c0-16.121-6.369-31.242-17.935-42.576L116.227,384.762z"/>
<g>
	<path style="fill:#EE8A68;" d="M440.36,372.728c-32.873,0-59.616,26.743-59.616,59.616s26.743,59.616,59.616,59.616
		s59.616-26.743,59.616-59.616S473.233,372.728,440.36,372.728z M470.657,419.883c0.255-0.044,0.513-0.075,0.77-0.075
		c2.048,0,3.836,1.391,4.347,3.39c0.768,2.968,1.156,6.046,1.156,9.147c0,20.165-16.406,36.571-36.571,36.571
		c-20.165,0-36.57-16.406-36.57-36.571s16.406-36.571,36.571-36.571c3.095,0,6.169,0.389,9.142,1.158
		c1.167,0.3,2.147,1.036,2.758,2.074c0.61,1.035,0.781,2.245,0.478,3.415c-0.068,0.265-0.161,0.515-0.272,0.756
		c4.136,1.408,8.18,3.583,12.002,6.494l0.324,0.246l0.246,0.324C467.414,413.358,469.281,416.595,470.657,419.883z"/>
	<path style="fill:#EE8A68;" d="M275.538,31.562c0-6.353-5.169-11.523-11.522-11.523H39.577c-6.353,0-11.523,5.169-11.523,11.523
		v11.523h247.483V31.562z"/>
</g>
<path style="fill:#D67153;" d="M79.656,459.898c15.194,0,27.554-12.36,27.554-27.554v-52.896l-1.699-0.821
	c-8.114-3.915-16.812-5.9-25.854-5.9s-17.742,1.985-25.854,5.9l-1.699,0.821v52.896C52.102,447.538,64.462,459.898,79.656,459.898z
	 M79.656,444.869c-6.906,0-12.524-5.618-12.524-12.524s5.618-12.524,12.524-12.524s12.524,5.618,12.524,12.524
	S86.562,444.869,79.656,444.869z"/>
<path style="fill:#EE8A68;" d="M199.89,324.634h-50.849c-9.768,0-18.952-3.804-25.86-10.712l-37.323-37.323
	c-5.206-5.207-12.125-8.075-19.479-8.075H23.546c-6.353,0-11.523,5.169-11.523,11.522v90.928c0,7.354,2.868,14.273,8.075,19.479
	l2.967,2.967l2.086-2.722c13.141-17.152,33.007-26.988,54.504-26.988c37.845,0,68.634,30.789,68.634,68.634
	c0,0-0.01,0.386-0.01,0.501v3.006h59.626c1.934,0,3.507-1.573,3.507-3.507v-96.188C211.413,329.803,206.244,324.634,199.89,324.634z
	"/>
<g>
	<path style="fill:#D67153;" d="M207.957,327.943c-7.766,37.414-30.33,69.403-61.298,89.582c1.055,4.775,1.629,9.731,1.629,14.819
		c0,0-0.01,0.386-0.01,0.501v3.006h59.626c1.934,0,3.507-1.573,3.507-3.507v-96.188
		C211.413,332.942,210.087,330.035,207.957,327.943z"/>
	<path style="fill:#D67153;" d="M398.778,311.978l-30.69,30.689c-3.879,3.878-9.038,6.013-14.527,6.013h-133.13v39.076h131.757
		c2.486,0,4.509,2.023,4.509,4.509s-2.023,4.509-4.509,4.509H220.431v23.045h152.415l0.522-2.355
		c6.912-31.147,35.086-53.754,66.993-53.754c15.653,0,30.974,5.438,43.144,15.31l2.104,1.707l14.368-14.38v-57.745h-93.052
		C403.834,308.603,400.938,309.804,398.778,311.978z"/>
</g>
<path style="fill:#EE8A68;" d="M480.441,245.379l-141.275-42.994c-2.618-0.798-5.327-1.202-8.051-1.202
	c-8.182,0-15.889,3.615-21.145,9.919l-19.028,22.837c-4.118,4.951-6.386,11.216-6.386,17.642v88.082h69.005
	c3.091,0,5.987-1.201,8.147-3.376l30.69-30.689c3.879-3.878,9.038-6.013,14.527-6.013h93.052v-27.844
	C499.977,259.527,492.126,248.933,480.441,245.379z M312.11,307.601h32.063c2.486,0,4.509,2.023,4.509,4.509
	s-2.023,4.509-4.509,4.509H312.11c-2.486,0-4.509-2.023-4.509-4.509S309.624,307.601,312.11,307.601z M344.172,292.571H312.11
	c-2.486,0-4.509-2.023-4.509-4.509s2.023-4.509,4.509-4.509h32.063c2.486,0,4.509,2.023,4.509,4.509
	S346.658,292.571,344.172,292.571z M344.172,268.524H312.11c-2.486,0-4.509-2.023-4.509-4.509s2.023-4.509,4.509-4.509h32.063
	c2.486,0,4.509,2.023,4.509,4.509S346.658,268.524,344.172,268.524z"/>
<path style="fill:#D67153;" d="M480.441,245.379l-17.359-5.283c-1.922,22.124-12.706,42.544-29.868,59.489h66.762v-27.844
	C499.977,259.527,492.126,248.933,480.441,245.379z"/>
<g>
	<path style="fill:#736F7B;" d="M98.559,276.54l31.002,31.002c5.206,5.207,12.125,8.075,19.479,8.075h22.295v-27.554
		c0-6.353-5.169-11.523-11.523-11.523H98.559z"/>
	<path style="fill:#736F7B;" d="M44.086,140.274v119.233h23.045v-107.71c0-6.353-5.169-11.523-11.523-11.523H44.086z"/>
	<path style="fill:#736F7B;" d="M464.792,409.917l-0.324-0.246c-3.821-2.911-7.866-5.086-12.002-6.494
		c-3.659-1.245-7.389-1.893-11.105-1.893c-12.277,0-23.293,6.838-28.746,17.848c-5.849,11.809-4.002,25.412,5.069,37.322
		l0.246,0.324l0.324,0.246c7.203,5.487,15.194,8.386,23.107,8.386c12.277,0,23.293-6.838,28.745-17.848
		c4.317-8.716,4.429-18.409,0.549-27.678c-1.377-3.288-3.243-6.525-5.619-9.644L464.792,409.917z"/>
</g>
<path d="M512,271.741v96.478c0,1.994-0.792,3.908-2.204,5.31l-13.777,13.777c9.99,12.314,15.981,27.985,15.981,45.038
	c0,39.507-32.133,71.64-71.64,71.64s-71.64-32.133-71.64-71.64c0-0.17,0.01-0.331,0.01-0.501H223.436v0.501
	c0,8.567-6.964,15.53-15.53,15.53h-58.324c-7.114,32.063-35.76,56.11-69.927,56.11c-39.507,0-71.64-32.133-71.64-71.64
	c0-10.801,2.415-21.051,6.723-30.249l-3.146-3.136C4.118,391.485,0,381.545,0,370.975v-90.928c0-12.985,10.561-23.546,23.546-23.546
	h8.517V55.108h-8.517c-4.148,0-7.515-3.367-7.515-7.515V31.562c0-12.985,10.561-23.546,23.546-23.546h224.438
	c12.985,0,23.546,10.561,23.546,23.546v16.031c0,4.148-3.367,7.515-7.515,7.515H47.092v73.143h8.517
	c12.985,0,23.546,10.561,23.546,23.546v106.819c3.978,1.343,7.715,3.337,11.102,5.902h69.556c12.985,0,23.546,10.561,23.546,23.546
	v24.548h16.532c3.006,0,5.871,0.571,8.517,1.603v-74.245c0-4.419-1.723-8.567-4.839-11.693l-19.708-19.698l-10.721,10.711
	c-1.463,1.473-3.387,2.204-5.31,2.204s-3.848-0.731-5.31-2.204c-2.936-2.936-2.936-7.695,0-10.621l32.063-32.063
	c2.936-2.936,7.685-2.936,10.621,0c2.936,2.926,2.936,7.685,0,10.621l-10.711,10.721l19.698,19.708
	c5.962,5.962,9.248,13.887,9.248,22.314v96.188v0.501h49.096v-85.076c0-9.248,3.256-18.246,9.178-25.339l19.027-22.835
	c10.21-12.254,26.662-17.174,41.922-12.524l141.286,42.994C500.728,238.987,512,254.196,512,271.741z M496.971,365.103v-53.495
	h-90.046c-2.274,0-4.419,0.882-6.022,2.495l-30.69,30.69c-4.449,4.449-10.36,6.893-16.653,6.893H223.436v33.065h128.751
	c4.148,0,7.515,3.367,7.515,7.515c0,4.148-3.367,7.515-7.515,7.515H223.436v17.033h146.997c7.114-32.063,35.76-56.11,69.927-56.11
	c17.053,0,32.724,5.992,45.038,15.981L496.971,365.103z M496.971,296.579v-24.839c0-10.881-6.994-20.32-17.404-23.486
	l-141.276-42.994c-9.469-2.886-19.678,0.17-26.011,7.765l-19.027,22.835c-3.667,4.409-5.691,9.99-5.691,15.721v85.076h65.999
	c2.274,0,4.419-0.882,6.022-2.495l30.69-30.69c4.449-4.449,10.36-6.893,16.653-6.893H496.971z M496.971,432.344
	c0-31.211-25.4-56.611-56.611-56.611s-56.611,25.4-56.611,56.611s25.4,56.611,56.611,56.611S496.971,463.555,496.971,432.344z
	 M272.532,40.078v-8.517c0-4.699-3.817-8.517-8.517-8.517H39.577c-4.699,0-8.517,3.817-8.517,8.517v8.517H272.532z M208.407,432.344
	v-88.172v-8.016c0-4.699-3.817-8.517-8.517-8.517h-50.849c-10.571,0-20.51-4.118-27.985-11.593l-37.323-37.323
	c-4.639-4.639-10.801-7.194-17.354-7.194H23.546c-4.699,0-8.517,3.817-8.517,8.517v90.928c0,6.553,2.555,12.715,7.194,17.354
	l0.541,0.541c13.106-17.103,33.726-28.165,56.891-28.165c39.507,0,71.64,32.133,71.64,71.64c0,0.17-0.01,0.331-0.01,0.501h56.621
	C208.187,432.845,208.407,432.625,208.407,432.344z M168.329,312.611v-24.548c0-4.699-3.817-8.517-8.517-8.517h-53.995
	l25.871,25.871c4.639,4.639,10.801,7.194,17.354,7.194H168.329z M136.266,432.344c0-15.821-6.533-30.139-17.033-40.429v41.431
	c0,0.281-0.02,0.551-0.05,0.822c-0.952,20.981-18.316,37.754-39.527,37.754c-21.823,0-39.577-17.755-39.577-39.577v-40.429
	c-10.501,10.29-17.033,24.608-17.033,40.429c0,31.211,25.4,56.611,56.611,56.611S136.266,463.555,136.266,432.344z M104.204,432.344
	v-51.01c-7.435-3.587-15.761-5.601-24.548-5.601s-17.113,2.014-24.548,5.601v51.01c0,13.536,11.012,24.548,24.548,24.548
	S104.204,445.881,104.204,432.344z M64.125,256.501V151.796c0-4.699-3.817-8.517-8.517-8.517h-8.517v113.221H64.125z
	 M469.537,417.045c-4.018,1.032-6.443,5.13-5.401,9.148c0.511,1.994,0.771,4.068,0.771,6.152c0,13.536-11.012,24.548-24.548,24.548
	s-24.548-11.012-24.548-24.548s11.012-24.548,24.548-24.548c2.084,0,4.148,0.261,6.142,0.771c4.018,1.032,8.116-1.383,9.148-5.401
	c1.042-4.018-1.383-8.116-5.401-9.148c-3.216-0.832-6.543-1.252-9.889-1.252c-21.823,0-39.577,17.755-39.577,39.577
	s17.755,39.577,39.577,39.577s39.577-17.755,39.577-39.577c0-3.347-0.421-6.683-1.252-9.899
	C477.653,418.417,473.555,416.003,469.537,417.045z M312.11,256.501c-4.148,0-7.515,3.367-7.515,7.515
	c0,4.148,3.367,7.515,7.515,7.515h32.063c4.148,0,7.515-3.367,7.515-7.515c0-4.148-3.367-7.515-7.515-7.515H312.11z M312.11,280.548
	c-4.148,0-7.515,3.367-7.515,7.515c0,4.148,3.367,7.515,7.515,7.515h32.063c4.148,0,7.515-3.367,7.515-7.515
	c0-4.148-3.367-7.515-7.515-7.515H312.11z M312.11,304.595c-4.148,0-7.515,3.367-7.515,7.515c0,4.148,3.367,7.515,7.515,7.515
	h32.063c4.148,0,7.515-3.367,7.515-7.515c0-4.148-3.367-7.515-7.515-7.515H312.11z M79.656,416.814c8.567,0,15.53,6.964,15.53,15.53
	s-6.964,15.53-15.53,15.53s-15.53-6.964-15.53-15.53S71.089,416.814,79.656,416.814z M80.157,432.344
	c0-0.281-0.22-0.501-0.501-0.501s-0.501,0.22-0.501,0.501s0.22,0.501,0.501,0.501S80.157,432.625,80.157,432.344z"/>
<g>
</g>
<g>
</g>
<g>
</g>
<g>
</g>
<g>
</g>
<g>
</g>
<g>
</g>
<g>
</g>
<g>
</g>
<g>
</g>
<g>
</g>
<g>
</g>
<g>
</g>
<g>
</g>
<g>
</g>
</svg>
